<?xml version="1.0" encoding="UTF-8"?>
<svg width="24px" height="24px" viewBox="0 0 24 24" version="1.1" xmlns="http://www.w3.org/2000/svg" xmlns:xlink="http://www.w3.org/1999/xlink">
    <!-- Generator: Sketch 46.2 (44496) - http://www.bohemiancoding.com/sketch -->
    <title>icons/24/icon-audio_24</title>
    <desc>Created with Sketch.</desc>
    <defs>
        <path d="M4,11.5789474 L4,17.4736842 C4,18.9052632 5.15555556,20 6.66666667,20 L8,20 L8,13.2631579 L5.77777778,13.2631579 L5.77777778,11.5789474 C5.77777778,8.29473684 8.53333333,5.68421053 12,5.68421053 C15.4666667,5.68421053 18.2222222,8.29473684 18.2222222,11.5789474 L18.2222222,13.2631579 L16,13.2631579 L16,20 L17.3333333,20 C18.8444444,20 20,18.9052632 20,17.4736842 L20,11.5789474 C20,7.36842105 16.4444444,4 12,4 C7.55555556,4 4,7.36842105 4,11.5789474 Z" id="path-1"></path>
    </defs>
    <g id="Symbols" stroke="none" stroke-width="1" fill="none" fill-rule="evenodd">
        <g id="icon/audio_24">
            <g id="icon-audio_24">
                <mask id="mask-2" fill="white">
                    <use xlink:href="#path-1"></use>
                </mask>
                <use id="icon" fill="#FFFFFF" xlink:href="#path-1"></use>
                <g id="icon-color" mask="url(#mask-2)" fill="#FFFFFF">
                    <g transform="translate(1.000000, 1.000000)" id="ui-color">
                        <rect x="0" y="0" width="22" height="22"></rect>
                    </g>
                </g>
            </g>
        </g>
    </g>
</svg>